<?xml version="1.0" encoding="utf-8"?>
<!-- Generator: Adobe Illustrator 15.0.0, SVG Export Plug-In . SVG Version: 6.00 Build 0)  -->
<!DOCTYPE svg PUBLIC "-//W3C//DTD SVG 1.0//EN" "http://www.w3.org/TR/2001/REC-SVG-20010904/DTD/svg10.dtd">
<svg version="1.0"
	 id="Layer_2" xmlns:svg="http://www.w3.org/2000/svg" xmlns:dc="http://purl.org/dc/elements/1.1/" xmlns:cc="http://creativecommons.org/ns#" xmlns:inkscape="http://www.inkscape.org/namespaces/inkscape" xmlns:sodipodi="http://sodipodi.sourceforge.net/DTD/sodipodi-0.dtd" xmlns:rdf="http://www.w3.org/1999/02/22-rdf-syntax-ns#" inkscape:version="0.48.2 r9819" sodipodi:docname="noisebridge_circuit_only.svg"
	 xmlns="http://www.w3.org/2000/svg" xmlns:xlink="http://www.w3.org/1999/xlink" x="0px" y="0px" width="216px" height="216px"
	 viewBox="0 0 216 216" enable-background="new 0 0 216 216" xml:space="preserve">
<sodipodi:namedview  id="namedview145" inkscape:window-maximized="0" objecttolerance="10" inkscape:cy="108" inkscape:zoom="1.0925926" guidetolerance="10" pagecolor="#ffffff" inkscape:cx="108" gridtolerance="10" borderopacity="1" bordercolor="#666666" showgrid="false" inkscape:pageopacity="0" inkscape:pageshadow="2" inkscape:window-width="1135" inkscape:window-height="862" inkscape:current-layer="Layer_2" inkscape:window-y="0" inkscape:window-x="0">
	</sodipodi:namedview>
<path id="path143" fill="#EB2026" d="M215.863,155.875V65.776l-8.2,5.819l-22.357,15.869h-5.008V56.782
	c0.002-5.218-2.145-9.984-5.566-13.397c-3.412-3.421-8.177-5.567-13.396-5.565h-25.241c-1.08-6-3.964-11.391-8.092-15.517
	c-5.284-5.292-12.638-8.58-20.709-8.577c-8.072-0.003-15.427,3.286-20.71,8.579c-4.13,4.124-7.012,9.515-8.09,15.515H53.25
	c-5.218-0.001-9.983,2.144-13.396,5.565c-3.421,3.413-5.566,8.179-5.565,13.397v15.939L0.498,81.89l39.388,11.699L1.257,105.063
	l38.629,11.471L1.257,128.007L39.95,139.5l-5.661,1.694v23.675c-0.001,5.22,2.145,9.985,5.565,13.398
	c3.414,3.42,8.179,5.566,13.397,5.564h35.144v-5.194c0.001-5.234,2.105-9.927,5.533-13.366c3.437-3.429,8.129-5.533,13.365-5.533
	c5.234,0.004,9.927,2.107,13.362,5.533c3.429,3.439,5.533,8.132,5.536,13.366v5.194h35.143c5.221,0.002,9.985-2.145,13.397-5.564
	c3.421-3.416,5.566-8.181,5.566-13.398v-30.688h5.006L215.863,155.875z M192.152,126.306V95.344l13.321-9.455v49.872
	L192.152,126.306z M181.764,123.796h-21.126V97.854h21.126V123.796z M169.908,164.869c-0.002,2.356-0.954,4.476-2.523,6.053
	c-1.575,1.57-3.696,2.52-6.051,2.521h-25.241c-1.078-6.002-3.962-11.394-8.091-15.517c-5.287-5.29-12.641-8.58-20.71-8.576
	c-8.072-0.004-15.426,3.285-20.711,8.576c-4.128,4.123-7.012,9.515-8.09,15.517H53.25c-2.354-0.002-4.473-0.952-6.05-2.521
	c-1.57-1.577-2.521-3.699-2.523-6.053v-15.94l31.632-9.469l-38.564-11.453l38.628-11.473l-38.628-11.471l38.628-11.474
	L38.504,82.341l6.173-1.674V56.782c0.002-2.354,0.953-4.473,2.523-6.05c1.577-1.57,3.697-2.522,6.05-2.523h35.145v-5.194
	c0.001-5.236,2.105-9.927,5.533-13.364c3.437-3.428,8.129-5.532,13.364-5.535c5.235,0.001,9.925,2.107,13.361,5.535
	c3.431,3.438,5.535,8.13,5.535,13.364v5.194h35.145c2.354,0.001,4.474,0.953,6.051,2.523c1.57,1.578,2.522,3.696,2.522,6.05v30.684
	h-19.66v46.719h19.66v30.685H169.908z"/>
</svg>
